<svg width="98" height="98" viewBox="0 0 98 98" fill="none" xmlns="http://www.w3.org/2000/svg">
<path d="M55.5029 96.5164C78.5016 96.2732 97.0127 77.3666 96.7695 54.3678C96.5263 31.3691 77.6197 12.8581 54.6209 13.1012C47.5902 13.1756 40.6963 14.9169 34.8913 18.1961C34.4176 17.6382 33.8936 17.1251 33.3258 16.6634L21.2833 4.87289C20.1699 3.6464 18.8176 2.66042 17.3093 1.9755C15.801 1.29057 14.1687 0.921152 12.5125 0.889919C10.8563 0.858685 9.21116 1.1663 7.67814 1.79387C6.14513 2.42144 4.75655 3.35573 3.59768 4.53937C2.43881 5.723 1.53409 7.13102 0.939071 8.67696C0.344054 10.2229 0.0713055 11.8742 0.13755 13.5293C0.203794 15.1845 0.607641 16.8087 1.3243 18.3021C2.04096 19.7956 3.05531 21.1268 4.30507 22.214L16.3475 34.0045C16.9341 34.579 17.5786 35.0914 18.2705 35.5334C15.1148 41.4065 13.1608 48.2203 13.2364 55.3702C13.4796 78.3689 32.3862 96.88 55.385 96.6368L55.5029 96.5164ZM55.3769 84.5999C38.813 84.7751 25.4459 71.6876 25.2708 55.1238C25.1876 47.2589 27.9707 39.9596 32.9189 34.5443C33.0368 34.4239 33.1547 34.3035 33.2727 34.1831C33.8306 33.7094 34.3437 33.1853 34.8054 32.6175C39.9983 27.7955 47.1192 24.9791 54.8648 24.8972C71.4287 24.7221 84.7958 37.8095 84.971 54.3734C85.1461 70.9373 72.0587 84.3044 55.4948 84.4795L55.3769 84.5999Z" fill="white"/>
<path d="M56.785 74.55C53.6683 74.55 50.8083 74.275 48.205 73.725C45.6017 73.1383 43.2367 72.3683 41.11 71.415C39.02 70.425 37.1133 69.3067 35.39 68.06L39.68 60.58C42.6867 62.7067 45.7117 64.265 48.755 65.255C51.7983 66.2083 54.7133 66.685 57.5 66.685C58.71 66.685 59.975 66.575 61.295 66.355C62.615 66.0983 63.715 65.6767 64.595 65.09C65.5117 64.4667 65.97 63.6233 65.97 62.56C65.97 61.9367 65.75 61.4233 65.31 61.02C64.9067 60.58 64.3383 60.2317 63.605 59.975C62.8717 59.7183 62.01 59.5167 61.02 59.37C60.0667 59.1867 59.0217 59.0583 57.885 58.985C56.785 58.875 55.6667 58.765 54.53 58.655C51.9633 58.3983 49.635 57.9767 47.545 57.39C45.455 56.8033 43.6583 56.0517 42.155 55.135C40.6883 54.1817 39.5517 53.0267 38.745 51.67C37.9383 50.3133 37.535 48.755 37.535 46.995C37.535 45.015 38.0117 43.255 38.965 41.715C39.955 40.175 41.33 38.8917 43.09 37.865C44.85 36.8017 46.8667 35.995 49.14 35.445C51.45 34.895 53.925 34.62 56.565 34.62C59.315 34.62 61.79 34.8767 63.99 35.39C66.2267 35.8667 68.1883 36.5267 69.875 37.37C71.5983 38.2133 73.0283 39.13 74.165 40.12L69.655 46.61C68.5183 45.7667 67.1983 45.0517 65.695 44.465C64.2283 43.8417 62.67 43.365 61.02 43.035C59.4067 42.705 57.7933 42.54 56.18 42.54C54.53 42.54 53.045 42.6867 51.725 42.98C50.4417 43.2367 49.415 43.64 48.645 44.19C47.9117 44.7033 47.545 45.3817 47.545 46.225C47.545 46.995 47.8567 47.6367 48.48 48.15C49.14 48.6267 49.9833 49.0117 51.01 49.305C52.0367 49.5617 53.1733 49.7633 54.42 49.91C55.6667 50.0567 56.8767 50.2033 58.05 50.35C60.25 50.57 62.4133 50.8633 64.54 51.23C66.6667 51.56 68.5733 52.11 70.26 52.88C71.9833 53.6133 73.3583 54.6767 74.385 56.07C75.4117 57.4267 75.925 59.2783 75.925 61.625C75.925 64.3383 75.1 66.6667 73.45 68.61C71.8 70.5167 69.5267 71.9833 66.63 73.01C63.77 74.0367 60.4883 74.55 56.785 74.55Z" fill="white"/>
</svg>
