<svg width="391" height="120" viewBox="0 0 391 120" fill="none" xmlns="http://www.w3.org/2000/svg">
<path d="M56.785 74.55C53.6683 74.55 50.8083 74.275 48.205 73.725C45.6017 73.1383 43.2367 72.3683 41.11 71.415C39.02 70.425 37.1133 69.3067 35.39 68.06L39.68 60.58C42.6867 62.7067 45.7117 64.265 48.755 65.255C51.7983 66.2083 54.7133 66.685 57.5 66.685C58.71 66.685 59.975 66.575 61.295 66.355C62.615 66.0983 63.715 65.6767 64.595 65.09C65.5117 64.4667 65.97 63.6233 65.97 62.56C65.97 61.9367 65.75 61.4233 65.31 61.02C64.9067 60.58 64.3383 60.2317 63.605 59.975C62.8717 59.7183 62.01 59.5167 61.02 59.37C60.0667 59.1867 59.0217 59.0583 57.885 58.985C56.785 58.875 55.6667 58.765 54.53 58.655C51.9633 58.3983 49.635 57.9767 47.545 57.39C45.455 56.8033 43.6583 56.0517 42.155 55.135C40.6883 54.1817 39.5517 53.0267 38.745 51.67C37.9383 50.3133 37.535 48.755 37.535 46.995C37.535 45.015 38.0117 43.255 38.965 41.715C39.955 40.175 41.33 38.8917 43.09 37.865C44.85 36.8017 46.8667 35.995 49.14 35.445C51.45 34.895 53.925 34.62 56.565 34.62C59.315 34.62 61.79 34.8767 63.99 35.39C66.2267 35.8667 68.1883 36.5267 69.875 37.37C71.5983 38.2133 73.0283 39.13 74.165 40.12L69.655 46.61C68.5183 45.7667 67.1983 45.0517 65.695 44.465C64.2283 43.8417 62.67 43.365 61.02 43.035C59.4067 42.705 57.7933 42.54 56.18 42.54C54.53 42.54 53.045 42.6867 51.725 42.98C50.4417 43.2367 49.415 43.64 48.645 44.19C47.9117 44.7033 47.545 45.3817 47.545 46.225C47.545 46.995 47.8567 47.6367 48.48 48.15C49.14 48.6267 49.9833 49.0117 51.01 49.305C52.0367 49.5617 53.1733 49.7633 54.42 49.91C55.6667 50.0567 56.8767 50.2033 58.05 50.35C60.25 50.57 62.4133 50.8633 64.54 51.23C66.6667 51.56 68.5733 52.11 70.26 52.88C71.9833 53.6133 73.3583 54.6767 74.385 56.07C75.4117 57.4267 75.925 59.2783 75.925 61.625C75.925 64.3383 75.1 66.6667 73.45 68.61C71.8 70.5167 69.5267 71.9833 66.63 73.01C63.77 74.0367 60.4883 74.55 56.785 74.55ZM91.6133 74V35.5H126.153V43.475H100.688V66.025H126.703V74H91.6133ZM96.5633 58.215V50.625H123.678V58.215H96.5633ZM138.259 74L157.399 35.5H166.199L185.229 74H175.549L164.164 51.175C163.761 50.3683 163.394 49.6167 163.064 48.92C162.734 48.1867 162.422 47.49 162.129 46.83C161.836 46.1333 161.561 45.455 161.304 44.795C161.084 44.0983 160.846 43.3833 160.589 42.65L162.734 42.595C162.477 43.365 162.202 44.1167 161.909 44.85C161.652 45.5467 161.359 46.2433 161.029 46.94C160.736 47.6367 160.424 48.3517 160.094 49.085C159.764 49.7817 159.416 50.4967 159.049 51.23L147.719 74H138.259ZM147.114 67.18L150.194 60.14H173.239L174.504 67.18H147.114ZM198.337 74V35.5H220.667C223.747 35.5 226.369 36.0133 228.532 37.04C230.695 38.03 232.345 39.46 233.482 41.33C234.619 43.1633 235.187 45.3267 235.187 47.82C235.187 50.2767 234.545 52.495 233.262 54.475C231.979 56.4183 230.237 57.9583 228.037 59.095C225.837 60.195 223.38 60.745 220.667 60.745H207.247V74H198.337ZM226.607 74L213.517 56.62L223.307 55.245L237.497 74H226.607ZM207.247 53.595H219.567C220.667 53.595 221.675 53.375 222.592 52.935C223.545 52.495 224.297 51.89 224.847 51.12C225.434 50.3133 225.727 49.3783 225.727 48.315C225.727 47.2517 225.434 46.3533 224.847 45.62C224.297 44.8867 223.545 44.3183 222.592 43.915C221.639 43.5117 220.594 43.31 219.457 43.31H207.247V53.595ZM274.887 74.55C271.55 74.55 268.433 74.0733 265.537 73.12C262.677 72.1667 260.147 70.81 257.947 69.05C255.783 67.29 254.097 65.2 252.887 62.78C251.677 60.3233 251.072 57.5917 251.072 54.585C251.072 51.6517 251.695 48.975 252.942 46.555C254.188 44.135 255.875 42.045 258.002 40.285C260.165 38.4883 262.677 37.1133 265.537 36.16C268.433 35.2067 271.513 34.73 274.777 34.73C277.233 34.73 279.58 35.005 281.817 35.555C284.09 36.105 286.18 36.8383 288.087 37.755C290.03 38.635 291.643 39.6067 292.927 40.67L287.647 48.095C286.62 47.2517 285.447 46.4633 284.127 45.73C282.843 44.9967 281.377 44.41 279.727 43.97C278.113 43.53 276.262 43.31 274.172 43.31C272.522 43.31 270.908 43.5667 269.332 44.08C267.755 44.5567 266.307 45.2717 264.987 46.225C263.667 47.1783 262.622 48.37 261.852 49.8C261.082 51.23 260.697 52.8617 260.697 54.695C260.697 56.565 261.1 58.215 261.907 59.645C262.75 61.075 263.868 62.2667 265.262 63.22C266.655 64.1733 268.232 64.8883 269.992 65.365C271.752 65.8417 273.567 66.08 275.437 66.08C277.563 66.08 279.433 65.805 281.047 65.255C282.66 64.6683 284.09 63.9717 285.337 63.165C286.583 62.3583 287.683 61.625 288.637 60.965L293.037 68.225C291.937 69.105 290.452 70.04 288.582 71.03C286.748 72.02 284.658 72.8633 282.312 73.56C280.002 74.22 277.527 74.55 274.887 74.55ZM340.122 74V35.5H349.472V74H340.122ZM308.552 74V35.5H317.902V74H308.552ZM312.182 59.205L312.292 50.845H345.072V59.205H312.182ZM374.712 74.605C372.475 74.605 370.807 74.165 369.707 73.285C368.607 72.405 368.057 71.2133 368.057 69.71C368.057 68.4267 368.607 67.29 369.707 66.3C370.844 65.2733 372.512 64.76 374.712 64.76C376.949 64.76 378.617 65.2183 379.717 66.135C380.854 67.015 381.422 68.2067 381.422 69.71C381.422 70.9567 380.854 72.0933 379.717 73.12C378.617 74.11 376.949 74.605 374.712 74.605Z" fill="white"/>
<line x1="37" y1="90.5" x2="172" y2="90.5" stroke="white" stroke-width="5"/>
<path d="M221.531 115.086C221.531 113.188 221.543 111.324 221.566 109.496C221.59 107.668 221.578 105.852 221.531 104.047C221.484 102.242 221.391 100.438 221.25 98.6328C221.109 96.8047 220.898 94.9531 220.617 93.0781C220.617 93.0312 220.582 92.9375 220.512 92.7969C220.465 92.6562 220.418 92.5156 220.371 92.375C220.324 92.2109 220.277 92.0703 220.23 91.9531C220.184 91.8359 220.16 91.7539 220.16 91.707C220.16 91.5898 220.195 91.4492 220.266 91.2852C220.359 91.1211 220.465 90.9688 220.582 90.8281C220.723 90.6641 220.875 90.5352 221.039 90.4414C221.203 90.3477 221.367 90.3125 221.531 90.3359C221.812 90.4062 222.035 90.582 222.199 90.8633C222.387 91.1445 222.527 91.4609 222.621 91.8125C222.715 92.1406 222.773 92.4688 222.797 92.7969C222.844 93.125 222.867 93.3594 222.867 93.5C223.57 93.125 224.355 92.7266 225.223 92.3047C226.113 91.8594 227.016 91.4609 227.93 91.1094C228.867 90.7344 229.793 90.4297 230.707 90.1953C231.645 89.9375 232.523 89.8086 233.344 89.8086C233.344 90.0195 233.297 90.207 233.203 90.3711C233.133 90.5352 232.98 90.6758 232.746 90.793L222.867 95.75V97.1211C222.891 97.3789 222.914 97.8242 222.938 98.457C222.984 99.0898 223.031 99.7695 223.078 100.496C223.125 101.199 223.16 101.879 223.184 102.535C223.23 103.168 223.266 103.602 223.289 103.836L230.531 99.793L230.707 99.582C230.824 99.4414 230.977 99.3125 231.164 99.1953C231.352 99.0781 231.539 99.0195 231.727 99.0195C231.938 98.9961 232.137 99.1133 232.324 99.3711C232.324 99.793 232.113 100.203 231.691 100.602C231.27 101 230.742 101.398 230.109 101.797C229.477 102.195 228.785 102.582 228.035 102.957C227.309 103.332 226.629 103.695 225.996 104.047C225.363 104.398 224.836 104.75 224.414 105.102C223.992 105.453 223.781 105.781 223.781 106.086V112.871C224.086 112.988 224.508 112.941 225.047 112.73C225.609 112.496 226.23 112.18 226.91 111.781C227.59 111.383 228.293 110.926 229.02 110.41C229.746 109.871 230.449 109.367 231.129 108.898C231.832 108.43 232.477 108.008 233.062 107.633C233.672 107.258 234.176 107.035 234.574 106.965C234.809 106.965 235.02 107.012 235.207 107.105C235.395 107.199 235.488 107.387 235.488 107.668C235.488 107.949 235.324 108.172 234.996 108.336C234.176 108.828 233.227 109.449 232.148 110.199C231.094 110.926 230.016 111.664 228.914 112.414C227.812 113.141 226.723 113.809 225.645 114.418C224.59 115.004 223.676 115.391 222.902 115.578C222.598 115.578 222.352 115.555 222.164 115.508C221.977 115.461 221.766 115.32 221.531 115.086ZM240.34 114.348C240.387 114.113 240.68 113.891 241.219 113.68C241.758 113.469 242.426 113.246 243.223 113.012C244.02 112.777 244.898 112.52 245.859 112.238C246.82 111.957 247.746 111.641 248.637 111.289C249.527 110.938 250.336 110.539 251.062 110.094C251.812 109.648 252.363 109.133 252.715 108.547C252.715 108.195 252.48 107.926 252.012 107.738C251.566 107.551 250.957 107.398 250.184 107.281C249.434 107.141 248.566 107.035 247.582 106.965C246.621 106.871 245.625 106.754 244.594 106.613C243.586 106.449 242.59 106.262 241.605 106.051C240.645 105.816 239.777 105.5 239.004 105.102C238.254 104.68 237.645 104.152 237.176 103.52C236.73 102.887 236.508 102.113 236.508 101.199C236.508 100.285 236.707 99.3828 237.105 98.4922C237.504 97.5781 238.031 96.6992 238.688 95.8555C239.367 95.0117 240.129 94.2266 240.973 93.5C241.84 92.7734 242.742 92.1406 243.68 91.6016C244.617 91.0625 245.543 90.6406 246.457 90.3359C247.395 90.0312 248.262 89.8789 249.059 89.8789C249.27 89.8789 249.492 89.8789 249.727 89.8789C249.961 89.8555 250.16 89.8672 250.324 89.9141C250.512 89.9375 250.664 90.0195 250.781 90.1602C250.898 90.3008 250.957 90.5117 250.957 90.793C250.957 91.4727 250.734 91.9648 250.289 92.2695C249.844 92.5508 249.305 92.6914 248.672 92.6914L247.301 91.707C246.762 91.707 246.164 91.8594 245.508 92.1641C244.875 92.4688 244.219 92.8789 243.539 93.3945C242.883 93.8867 242.238 94.4609 241.605 95.1172C240.973 95.7734 240.41 96.4531 239.918 97.1562C239.449 97.8594 239.062 98.5625 238.758 99.2656C238.477 99.9688 238.336 100.602 238.336 101.164C238.336 101.984 238.559 102.652 239.004 103.168C239.473 103.66 240.082 104.059 240.832 104.363C241.605 104.645 242.484 104.855 243.469 104.996C244.453 105.137 245.449 105.254 246.457 105.348C247.465 105.441 248.461 105.535 249.445 105.629C250.43 105.699 251.297 105.84 252.047 106.051C252.82 106.262 253.43 106.543 253.875 106.895C254.344 107.246 254.578 107.727 254.578 108.336C254.836 108.711 254.777 109.145 254.402 109.637C254.051 110.105 253.488 110.586 252.715 111.078C251.965 111.547 251.062 112.027 250.008 112.52C248.977 112.988 247.91 113.422 246.809 113.82C245.707 114.195 244.641 114.523 243.609 114.805C242.578 115.062 241.699 115.227 240.973 115.297C240.762 115.297 240.574 115.227 240.41 115.086C240.27 114.945 240.246 114.699 240.34 114.348ZM266.145 93.957C265.395 93.957 264.633 94.0273 263.859 94.168C263.109 94.3086 262.359 94.4727 261.609 94.6602C260.859 94.8242 260.109 94.9766 259.359 95.1172C258.609 95.2578 257.848 95.3281 257.074 95.3281C256.84 95.3281 256.594 95.3047 256.336 95.2578C256.102 95.1875 255.984 94.9766 255.984 94.625C255.984 94.3906 256.078 94.1562 256.266 93.9219C256.477 93.6641 256.699 93.5234 256.934 93.5L266.355 92.1289C266.379 92.0352 266.414 91.8945 266.461 91.707C266.508 91.4961 266.566 91.2969 266.637 91.1094C266.73 90.8984 266.848 90.7227 266.988 90.582C267.129 90.418 267.293 90.3359 267.48 90.3359C267.762 90.3359 267.984 90.4062 268.148 90.5469C268.312 90.6875 268.453 90.8516 268.57 91.0391C268.688 91.2031 268.793 91.3555 268.887 91.4961C268.98 91.6367 269.098 91.707 269.238 91.707H269.52C269.754 91.6836 270.129 91.6484 270.645 91.6016C271.16 91.5312 271.746 91.4609 272.402 91.3906C273.082 91.3203 273.797 91.25 274.547 91.1797C275.297 91.0859 276.012 91.0156 276.691 90.9688C277.371 90.8984 277.969 90.8398 278.484 90.793C279 90.7227 279.375 90.6641 279.609 90.6172C279.68 90.6172 279.844 90.6172 280.102 90.6172C280.383 90.5938 280.582 90.582 280.699 90.582C280.699 91.0273 280.453 91.4023 279.961 91.707C279.492 91.9883 278.883 92.2344 278.133 92.4453C277.406 92.6328 276.586 92.7852 275.672 92.9023C274.781 92.9961 273.902 93.0781 273.035 93.1484C272.191 93.2188 271.406 93.2773 270.68 93.3242C269.977 93.3711 269.438 93.4297 269.062 93.5C268.969 95.1641 269.004 96.8984 269.168 98.7031C269.355 100.508 269.578 102.324 269.836 104.152C270.117 105.98 270.375 107.797 270.609 109.602C270.844 111.406 270.961 113.129 270.961 114.77C271.055 115.098 271.09 115.355 271.066 115.543C271.066 115.73 271.008 115.859 270.891 115.93C270.773 116 270.598 116.035 270.363 116.035C270.129 116.035 269.848 116.023 269.52 116C269.285 115.156 269.074 114.172 268.887 113.047C268.723 111.898 268.57 110.68 268.43 109.391C268.289 108.078 268.148 106.73 268.008 105.348C267.891 103.965 267.773 102.594 267.656 101.234C267.539 99.875 267.41 98.5742 267.27 97.332C267.129 96.0898 266.965 94.9648 266.777 93.957H266.145ZM279.539 115.086C279.539 113.188 279.551 111.324 279.574 109.496C279.598 107.668 279.586 105.852 279.539 104.047C279.492 102.242 279.398 100.438 279.258 98.6328C279.117 96.8047 278.906 94.9531 278.625 93.0781C278.625 93.0312 278.59 92.9375 278.52 92.7969C278.473 92.6562 278.426 92.5156 278.379 92.375C278.332 92.2109 278.285 92.0703 278.238 91.9531C278.191 91.8359 278.168 91.7539 278.168 91.707C278.168 91.5898 278.203 91.4492 278.273 91.2852C278.367 91.1211 278.473 90.9688 278.59 90.8281C278.73 90.6641 278.883 90.5352 279.047 90.4414C279.211 90.3477 279.375 90.3125 279.539 90.3359C279.82 90.4062 280.043 90.582 280.207 90.8633C280.395 91.1445 280.535 91.4609 280.629 91.8125C280.723 92.1406 280.781 92.4688 280.805 92.7969C280.852 93.125 280.875 93.3594 280.875 93.5C281.578 93.125 282.363 92.7266 283.23 92.3047C284.121 91.8594 285.023 91.4609 285.938 91.1094C286.875 90.7344 287.801 90.4297 288.715 90.1953C289.652 89.9375 290.531 89.8086 291.352 89.8086C291.352 90.0195 291.305 90.207 291.211 90.3711C291.141 90.5352 290.988 90.6758 290.754 90.793L280.875 95.75V97.1211C280.898 97.3789 280.922 97.8242 280.945 98.457C280.992 99.0898 281.039 99.7695 281.086 100.496C281.133 101.199 281.168 101.879 281.191 102.535C281.238 103.168 281.273 103.602 281.297 103.836L288.539 99.793L288.715 99.582C288.832 99.4414 288.984 99.3125 289.172 99.1953C289.359 99.0781 289.547 99.0195 289.734 99.0195C289.945 98.9961 290.145 99.1133 290.332 99.3711C290.332 99.793 290.121 100.203 289.699 100.602C289.277 101 288.75 101.398 288.117 101.797C287.484 102.195 286.793 102.582 286.043 102.957C285.316 103.332 284.637 103.695 284.004 104.047C283.371 104.398 282.844 104.75 282.422 105.102C282 105.453 281.789 105.781 281.789 106.086V112.871C282.094 112.988 282.516 112.941 283.055 112.73C283.617 112.496 284.238 112.18 284.918 111.781C285.598 111.383 286.301 110.926 287.027 110.41C287.754 109.871 288.457 109.367 289.137 108.898C289.84 108.43 290.484 108.008 291.07 107.633C291.68 107.258 292.184 107.035 292.582 106.965C292.816 106.965 293.027 107.012 293.215 107.105C293.402 107.199 293.496 107.387 293.496 107.668C293.496 107.949 293.332 108.172 293.004 108.336C292.184 108.828 291.234 109.449 290.156 110.199C289.102 110.926 288.023 111.664 286.922 112.414C285.82 113.141 284.73 113.809 283.652 114.418C282.598 115.004 281.684 115.391 280.91 115.578C280.605 115.578 280.359 115.555 280.172 115.508C279.984 115.461 279.773 115.32 279.539 115.086ZM284.355 89.5625C283.723 89.4219 283.371 89.1758 283.301 88.8242C283.254 88.4727 283.383 88.0742 283.688 87.6289C283.992 87.1602 284.414 86.668 284.953 86.1523C285.492 85.6133 286.031 85.0977 286.57 84.6055C286.969 84.6055 287.238 84.7109 287.379 84.9219C287.52 85.1328 287.59 85.3789 287.59 85.6602V85.9062C287.543 86.1875 287.402 86.4922 287.168 86.8203C286.934 87.1484 286.652 87.4766 286.324 87.8047C285.996 88.1328 285.645 88.4492 285.27 88.7539C284.918 89.0586 284.613 89.3281 284.355 89.5625ZM304.676 93.957C303.926 93.957 303.164 94.0273 302.391 94.168C301.641 94.3086 300.891 94.4727 300.141 94.6602C299.391 94.8242 298.641 94.9766 297.891 95.1172C297.141 95.2578 296.379 95.3281 295.605 95.3281C295.371 95.3281 295.125 95.3047 294.867 95.2578C294.633 95.1875 294.516 94.9766 294.516 94.625C294.516 94.3906 294.609 94.1562 294.797 93.9219C295.008 93.6641 295.23 93.5234 295.465 93.5L304.887 92.1289C304.91 92.0352 304.945 91.8945 304.992 91.707C305.039 91.4961 305.098 91.2969 305.168 91.1094C305.262 90.8984 305.379 90.7227 305.52 90.582C305.66 90.418 305.824 90.3359 306.012 90.3359C306.293 90.3359 306.516 90.4062 306.68 90.5469C306.844 90.6875 306.984 90.8516 307.102 91.0391C307.219 91.2031 307.324 91.3555 307.418 91.4961C307.512 91.6367 307.629 91.707 307.77 91.707H308.051C308.285 91.6836 308.66 91.6484 309.176 91.6016C309.691 91.5312 310.277 91.4609 310.934 91.3906C311.613 91.3203 312.328 91.25 313.078 91.1797C313.828 91.0859 314.543 91.0156 315.223 90.9688C315.902 90.8984 316.5 90.8398 317.016 90.793C317.531 90.7227 317.906 90.6641 318.141 90.6172C318.211 90.6172 318.375 90.6172 318.633 90.6172C318.914 90.5938 319.113 90.582 319.23 90.582C319.23 91.0273 318.984 91.4023 318.492 91.707C318.023 91.9883 317.414 92.2344 316.664 92.4453C315.938 92.6328 315.117 92.7852 314.203 92.9023C313.312 92.9961 312.434 93.0781 311.566 93.1484C310.723 93.2188 309.938 93.2773 309.211 93.3242C308.508 93.3711 307.969 93.4297 307.594 93.5C307.5 95.1641 307.535 96.8984 307.699 98.7031C307.887 100.508 308.109 102.324 308.367 104.152C308.648 105.98 308.906 107.797 309.141 109.602C309.375 111.406 309.492 113.129 309.492 114.77C309.586 115.098 309.621 115.355 309.598 115.543C309.598 115.73 309.539 115.859 309.422 115.93C309.305 116 309.129 116.035 308.895 116.035C308.66 116.035 308.379 116.023 308.051 116C307.816 115.156 307.605 114.172 307.418 113.047C307.254 111.898 307.102 110.68 306.961 109.391C306.82 108.078 306.68 106.73 306.539 105.348C306.422 103.965 306.305 102.594 306.188 101.234C306.07 99.875 305.941 98.5742 305.801 97.332C305.66 96.0898 305.496 94.9648 305.309 93.957H304.676ZM317.367 89.7383C317.367 89.5508 317.426 89.4219 317.543 89.3516C317.684 89.2578 317.836 89.2109 318 89.2109C318.188 89.1875 318.375 89.1875 318.562 89.2109C318.773 89.2344 318.949 89.2461 319.09 89.2461C319.207 89.5273 319.301 90.0898 319.371 90.9336C319.465 91.7539 319.547 92.7617 319.617 93.957C319.711 95.1289 319.77 96.4297 319.793 97.8594C319.84 99.2891 319.875 100.742 319.898 102.219C319.945 103.672 319.969 105.102 319.969 106.508C319.992 107.914 320.004 109.203 320.004 110.375C320.027 111.523 320.039 112.508 320.039 113.328V114.91C320.016 115.379 319.91 115.66 319.723 115.754C319.559 115.824 319.16 115.766 318.527 115.578C318.457 115.555 318.398 115.203 318.352 114.523C318.305 113.844 318.27 112.953 318.246 111.852C318.223 110.727 318.199 109.449 318.176 108.02C318.152 106.566 318.129 105.078 318.105 103.555C318.082 102.031 318.047 100.508 318 98.9844C317.977 97.4609 317.941 96.0781 317.895 94.8359C317.848 93.5703 317.777 92.4922 317.684 91.6016C317.613 90.6875 317.508 90.0664 317.367 89.7383ZM321.938 109.707C321.938 108.957 322.008 107.938 322.148 106.648C322.312 105.359 322.547 103.977 322.852 102.5C323.18 101.023 323.578 99.5352 324.047 98.0352C324.516 96.5117 325.066 95.1406 325.699 93.9219C326.355 92.7031 327.094 91.707 327.914 90.9336C328.758 90.1602 329.684 89.7734 330.691 89.7734C331.277 89.7734 331.77 89.8789 332.168 90.0898C332.59 90.3008 332.93 90.5938 333.188 90.9688C333.469 91.3203 333.668 91.7305 333.785 92.1992C333.926 92.6445 333.996 93.1367 333.996 93.6758C333.574 93.6758 333.234 93.5703 332.977 93.3594C332.719 93.125 332.484 92.8789 332.273 92.6211C332.062 92.3633 331.84 92.1289 331.605 91.918C331.395 91.6836 331.102 91.5664 330.727 91.5664C329.977 91.5664 329.285 91.9297 328.652 92.6562C328.02 93.3594 327.445 94.2617 326.93 95.3633C326.414 96.4648 325.957 97.6953 325.559 99.0547C325.16 100.391 324.82 101.703 324.539 102.992C324.281 104.258 324.082 105.418 323.941 106.473C323.801 107.504 323.73 108.277 323.73 108.793C323.73 109.473 323.766 110.141 323.836 110.797C323.906 111.43 324.059 112.004 324.293 112.52C324.527 113.035 324.867 113.457 325.312 113.785C325.758 114.09 326.391 114.242 327.211 114.242C328.148 114.242 329.074 113.938 329.988 113.328C330.926 112.719 331.793 111.98 332.59 111.113C333.387 110.223 334.078 109.285 334.664 108.301C335.25 107.293 335.672 106.414 335.93 105.664C335.977 105.641 336.082 105.629 336.246 105.629C336.41 105.605 336.516 105.594 336.562 105.594C336.844 105.594 337.102 105.629 337.336 105.699C337.594 105.746 337.723 105.957 337.723 106.332C337.582 107.082 337.254 107.879 336.738 108.723C336.223 109.543 335.613 110.352 334.91 111.148C334.207 111.945 333.434 112.684 332.59 113.363C331.746 114.043 330.926 114.617 330.129 115.086C329.332 115.555 328.594 115.871 327.914 116.035C327.234 116.223 326.684 116.211 326.262 116C325.488 116 324.82 115.789 324.258 115.367C323.719 114.922 323.273 114.383 322.922 113.75C322.594 113.117 322.348 112.438 322.184 111.711C322.02 110.984 321.938 110.316 321.938 109.707ZM339.516 115.086C339.586 114.758 339.645 114.336 339.691 113.82C339.738 113.305 339.797 112.625 339.867 111.781C339.961 110.938 340.055 109.895 340.148 108.652C340.266 107.41 340.418 105.898 340.605 104.117C340.793 102.336 341.004 100.25 341.238 97.8594C341.496 95.4453 341.824 92.6445 342.223 89.457C342.246 89.2227 342.352 89.082 342.539 89.0352C342.75 88.9883 342.938 88.9648 343.102 88.9648C343.359 88.9648 343.57 89.0586 343.734 89.2461C343.898 89.4336 344.039 89.6445 344.156 89.8789C344.297 90.1133 344.426 90.3594 344.543 90.6172C344.66 90.875 344.789 91.0859 344.93 91.25C345.164 91.7891 345.398 92.4102 345.633 93.1133C345.891 93.8164 346.16 94.5664 346.441 95.3633C346.723 96.1602 347.004 96.9688 347.285 97.7891C347.566 98.5859 347.848 99.3711 348.129 100.145C348.41 100.895 348.668 101.598 348.902 102.254C349.16 102.887 349.395 103.414 349.605 103.836C349.863 103.812 350.227 103.719 350.695 103.555C351.164 103.367 351.668 103.191 352.207 103.027C352.746 102.863 353.273 102.734 353.789 102.641C354.305 102.547 354.738 102.547 355.09 102.641C355.441 102.711 355.664 102.91 355.758 103.238C355.875 103.566 355.793 104.082 355.512 104.785C355.348 104.785 355.195 104.762 355.055 104.715C354.914 104.645 354.773 104.586 354.633 104.539C354.492 104.469 354.34 104.41 354.176 104.363C354.035 104.293 353.871 104.258 353.684 104.258C353.566 104.258 353.297 104.328 352.875 104.469C352.477 104.586 352.043 104.727 351.574 104.891C351.105 105.031 350.695 105.184 350.344 105.348C349.992 105.488 349.816 105.594 349.816 105.664L352.242 115.191L351.328 116.527C350.93 115.848 350.59 115.074 350.309 114.207C350.051 113.316 349.805 112.438 349.57 111.57C349.336 110.68 349.09 109.859 348.832 109.109C348.598 108.336 348.293 107.691 347.918 107.176C347.426 107.41 346.84 107.609 346.16 107.773C345.48 107.938 344.824 108.148 344.191 108.406C343.559 108.641 343.008 108.969 342.539 109.391C342.094 109.789 341.824 110.34 341.73 111.043C341.684 111.324 341.637 111.699 341.59 112.168C341.566 112.637 341.531 113.082 341.484 113.504C341.414 114.02 341.355 114.547 341.309 115.086H339.516ZM343.559 94.3789L343.488 94.9766C343.465 95.375 343.43 95.8438 343.383 96.3828C343.336 96.8984 343.277 97.4375 343.207 98C343.16 98.5391 343.125 98.9961 343.102 99.3711C342.984 100.684 342.855 101.984 342.715 103.273C342.598 104.539 342.539 105.84 342.539 107.176C342.984 107.176 343.453 107.117 343.945 107C344.461 106.883 344.953 106.73 345.422 106.543C345.891 106.332 346.312 106.086 346.688 105.805C347.086 105.5 347.391 105.16 347.602 104.785C347.414 103.965 347.203 103.121 346.969 102.254C346.758 101.363 346.523 100.473 346.266 99.582C346.008 98.668 345.727 97.7773 345.422 96.9102C345.117 96.043 344.789 95.1992 344.438 94.3789C344.414 94.3555 344.332 94.3086 344.191 94.2383C344.051 94.1445 343.84 94.1914 343.559 94.3789Z" fill="white"/>
<path d="M55.5029 96.5164C78.5016 96.2732 97.0127 77.3666 96.7695 54.3678C96.5263 31.3691 77.6197 12.8581 54.6209 13.1012C47.5902 13.1756 40.6963 14.9169 34.8913 18.1961C34.4176 17.6382 33.8936 17.1251 33.3258 16.6634L21.2833 4.87289C20.1699 3.6464 18.8176 2.66042 17.3093 1.9755C15.801 1.29057 14.1687 0.921152 12.5125 0.889919C10.8563 0.858685 9.21116 1.1663 7.67814 1.79387C6.14513 2.42144 4.75655 3.35573 3.59768 4.53937C2.43881 5.723 1.53409 7.13102 0.939071 8.67696C0.344054 10.2229 0.0713055 11.8742 0.13755 13.5293C0.203794 15.1845 0.607641 16.8087 1.3243 18.3021C2.04096 19.7956 3.05531 21.1268 4.30507 22.214L16.3475 34.0045C16.9341 34.579 17.5786 35.0914 18.2705 35.5334C15.1148 41.4065 13.1608 48.2203 13.2364 55.3702C13.4796 78.3689 32.3862 96.88 55.385 96.6368L55.5029 96.5164ZM55.3769 84.5999C38.813 84.7751 25.4459 71.6876 25.2708 55.1238C25.1876 47.2589 27.9707 39.9596 32.9189 34.5443C33.0368 34.4239 33.1547 34.3035 33.2727 34.1831C33.8306 33.7094 34.3437 33.1853 34.8054 32.6175C39.9983 27.7955 47.1192 24.9791 54.8648 24.8972C71.4287 24.7221 84.7958 37.8095 84.971 54.3734C85.1461 70.9373 72.0587 84.3044 55.4948 84.4795L55.3769 84.5999Z" fill="white"/>
</svg>
